<svg xmlns="http://www.w3.org/2000/svg" viewBox="0 0 80.79 123.08"><defs></defs><title>cash</title><g id="圖層_2" data-name="圖層 2"><g id="圖層_1-2" data-name="圖層 1"><path class="cls-1" d="M29.63,108.23C14.11,105.89,0,97,0,77l22.23-.82c0,10.72,4.23,15.68,16.57,15.68,8.48,0,17.65-4.27,17.65-12.11,0-6.87-4.77-10.59-12-11.69l-16.4-1.65C12.52,64.22,1.41,56,1.41,39.06c0-15,10.76-26,28.22-28.88V0H47.45V9.9c18.87,2.34,31,12.79,31,27.23l-22,.83c-2-9.63-7.94-12-17.65-12-7.22,0-13.75,5.64-13.75,12.38,0,6.46,5.82,10,12.17,10.86l11.46,1.65c16.41,2.2,32.11,10.59,32.11,28.33,0,16.09-17.29,26.27-33.34,28.88v15H29.63Z"/></g></g></svg>