<?xml version="1.0" encoding="utf-8"?>
<!-- Generator: Adobe Illustrator 22.1.0, SVG Export Plug-In . SVG Version: 6.00 Build 0)  -->
<svg version="1.1" id="圖層_1" xmlns="http://www.w3.org/2000/svg" xmlns:xlink="http://www.w3.org/1999/xlink" x="0px" y="0px"
	 viewBox="0 0 50 50" style="enable-background:new 0 0 50 50;" xml:space="preserve">
<g>
	<path d="M46.1,17.4c-2.1,0-3.9,1.7-3.9,3.9c0,0.3,0,0.6,0.1,0.9l-9.3,7l-6-17c1-0.7,1.6-1.8,1.6-3.1c0-2.1-1.7-3.9-3.9-3.9
		c-2.1,0-3.9,1.7-3.9,3.9c0,1.3,0.6,2.4,1.6,3.1l-6.4,16.7l-8.6-6.4c0.1-0.4,0.2-0.8,0.2-1.2c0-2.1-1.7-3.9-3.9-3.9
		c-2.1,0-3.9,1.7-3.9,3.9s1.7,3.9,3.9,3.9c0,0,0.1,0,0.1,0l5.4,14.1c0.2,0.4,0.6,0.7,1,0.7c0.1,0,0.3,0,0.4-0.1
		c0.5-0.2,0.8-0.8,0.6-1.4L6,24.5c0.1-0.1,0.2-0.2,0.4-0.3l9.6,7.2c0.3,0.2,0.6,0.3,0.9,0.2c0.3-0.1,0.6-0.3,0.7-0.6l6.9-18.1
		c0.1,0,0.2,0,0.3,0c0.1,0,0.2,0,0.3,0l6.4,18.4c0.1,0.3,0.4,0.6,0.7,0.7c0.3,0.1,0.7,0,0.9-0.2L43.4,24c0,0,0.1,0.1,0.1,0.1
		L38,37.8H16.5c-0.6,0-1.1,0.5-1.1,1.1c0,0.6,0.5,1.1,1.1,1.1h22.3c0.4,0,0.8-0.3,1-0.7l5.7-14.1c0.2,0,0.4,0.1,0.6,0.1
		c2.1,0,3.9-1.7,3.9-3.9S48.3,17.4,46.1,17.4z"/>
	<path d="M40.7,42.7H8.8c-0.6,0-1.1,0.5-1.1,1.1c0,0.6,0.5,1.1,1.1,1.1h31.9c0.6,0,1.1-0.5,1.1-1.1C41.8,43.2,41.3,42.7,40.7,42.7z"
		/>
</g>
</svg>
