<svg xmlns="http://www.w3.org/2000/svg" viewBox="0 0 107.99 122.3"><defs></defs><title>cs</title><g id="圖層_2" data-name="圖層 2"><g id="圖層_1-2" data-name="圖層 1"><path class="cls-1" d="M30.11,64.38V64.2a9.05,9.05,0,0,0-3.48-7,10.14,10.14,0,0,0-7.21-1.61,18.13,18.13,0,0,1-5.91-1.3C10.33,52,7.46,51.23,5,52A6.87,6.87,0,0,0,.71,56.45l-.08.42C-1.91,81.1,4.78,88.14,6.13,89.29,9,92.07,13.46,92.71,17,92.71a30.49,30.49,0,0,0,5-.41c6.7-.42,8.24-6.67,8.12-10Z"/><path class="cls-1" d="M104.92,53.4c-2.3-1.76-5.65-1.11-7.86-.68l-.84.16a59.94,59.94,0,0,0-7.37,1.76c-2,.61-3.85,1.36-5.51,2l-.57.22a6.6,6.6,0,0,0-4.16,3.21A9.22,9.22,0,0,0,77.85,63l-.1.82c-.7,5.44-1.42,11.06-.73,16.84A26.44,26.44,0,0,0,78,85.29c.28.91.6,1.73.9,2.53,1.15,3,1.6,4.42.2,6.53-2.23,3.35-6.19,5.57-9.77,7.31A23.24,23.24,0,0,1,56.11,104a9.7,9.7,0,0,1-2.93-1l-.78-.35a11.44,11.44,0,0,0-15.48,8.47,9,9,0,0,0,3.94,8.66,13.48,13.48,0,0,0,7.79,2.57,11.32,11.32,0,0,0,1.43-.09,19.84,19.84,0,0,0,7.69-3.1,20.85,20.85,0,0,1,4.67-2.26l.59-.17c1.15-.33,2.3-.66,3.45-1A61.13,61.13,0,0,0,83,107.91c4.66-3.14,8.19-6.86,11.92-10.79L96,96A43.84,43.84,0,0,0,106.38,76c1.87-8.06,2.05-14.63.53-19.52A6,6,0,0,0,104.92,53.4Z"/><path class="cls-1" d="M5.21,49.75a6.79,6.79,0,0,0,2.45.47,6.06,6.06,0,0,0,2.57-.56A6.74,6.74,0,0,0,13,47.16a13.83,13.83,0,0,0,1.75-5.42c.12-.68.23-1.32.37-1.89A37.43,37.43,0,0,1,24.5,22.79c8.58-8.73,20.33-10.56,28.67-10.56,35.44,0,39.56,28.76,39.72,30l0,.16c.58,3,3.2,8.37,8.93,7.59a6.85,6.85,0,0,0,4.72-2.61,8.56,8.56,0,0,0,1.3-6.24C107.78,40.7,98.63,0,53.17,0,41.57,0,31,2.81,22.62,8.11A51.54,51.54,0,0,0,7.07,23.93,79.67,79.67,0,0,0,3,31.43l-.09.18c-1.43,2.9-3,6.31-2.92,10a11.23,11.23,0,0,0,.48,3.16A7.94,7.94,0,0,0,5.21,49.75Z"/></g></g></svg>