<svg xmlns="http://www.w3.org/2000/svg" viewBox="0 0 151.34 24.31"><title>dbLogo</title><g id="圖層_2" data-name="圖層 2"><g id="圖層_1-2" data-name="圖層 1"><path d="M33.29,4h-2.2V22.62H52.6V22H51.48V13.34h-2.2V22h-.63V14.32H43V22h-.63V9.76h-2.2V22h-.62V11H33.91V22h-.62ZM49.9,14.85c0-.25.4-.38.48-.43s.47.18.47.43V22h-1ZM46.32,22h-.87V18.48h.87ZM48,22H47.1V18.48H48Zm-.87-6.53c0-.24.37-.36.44-.4s.43.16.43.4V16.6H47.1Zm-1.65,0c0-.24.36-.36.43-.4s.44.16.44.4V16.6h-.87Zm-1.66,0c0-.24.37-.36.44-.4s.43.16.43.4V16.6h-.87Zm0,1.76H48v.63H43.79Zm0,1.25h.87V22h-.87Zm-3-7.2c0-.26.4-.39.47-.44s.47.18.47.44V22h-.94ZM37.22,22h-.86V15.13h.86Zm1.66,0H38V15.13h.87ZM38,12.11c0-.23.37-.35.44-.39s.43.16.43.39v1.14H38Zm-1.65,0c0-.23.36-.35.43-.39s.43.16.43.39v1.14h-.86Zm-1.66,0c0-.23.37-.35.44-.39s.43.16.43.39v1.14H34.7Zm0,1.77h4.18v.62H34.7Zm0,1.25h.87V22H34.7Zm-2,6.87h-.94V20.64h.94Zm0-2h-.94V5.56c0-.26.39-.39.47-.44s.47.18.47.44Z"/><rect y="23.25" width="22.63" height="0.63"/><rect x="31.09" y="23.25" width="22.63" height="0.63"/><path d="M28.6,6.54l.52-.43H28.8l-.68-.4h-.34a.26.26,0,0,0,0-.14c0-.24-.52-.39-.8-.46a7,7,0,0,0-.17-1.68,6.48,6.48,0,0,0-.17,1.68c-.28.07-.8.22-.8.46a.26.26,0,0,0,.05.14H25.6l-.68.4H24.6l.52.43Z"/><path d="M24.92,19.82H24.6l.51.43h3.5l.51-.43H28.8l-.68-.4h-.34a.26.26,0,0,0,0-.14c0-.23-.52-.39-.8-.45a6.9,6.9,0,0,0-.17-1.68,6.42,6.42,0,0,0-.17,1.68c-.28.06-.8.22-.8.45a.26.26,0,0,0,.05.14H25.6Z"/><path d="M23.26,20h.62V17.22a2.06,2.06,0,0,1,.79-1.47v-.38a2,2,0,0,1-.7-1.78c.4-2.07,2.89-3.14,2.89-3.14s2.49,1.07,2.89,3.14a2,2,0,0,1-.7,1.78v.38a1.9,1.9,0,0,1,.83,1.47V20h.58V6.93h-7.2Zm6.51-8.44a5.48,5.48,0,0,0-2.39-1.89h2.39ZM28.9,7.94c0-.23.37-.35.43-.4s.44.17.44.4V9.08H28.9Zm-1.65,0c0-.23.36-.35.43-.4s.43.17.43.4V9.08h-.86Zm-1.66,0c0-.23.37-.35.43-.4s.44.17.44.4V9.08h-.87Zm-1.65,0c0-.23.36-.35.43-.4s.43.17.43.4V9.08h-.86Zm0,1.77h2.39a5.48,5.48,0,0,0-2.39,1.89Z"/><polygon points="20.43 3.64 22.63 3.64 23 3.19 20.06 3.19 20.43 3.64"/><polygon points="13.54 9.36 13.91 8.91 10.97 8.91 11.34 9.36 13.54 9.36"/><polygon points="4.44 12.94 4.81 12.49 1.88 12.49 2.25 12.94 4.44 12.94"/><path d="M20.43,22h-.62V11H14.16V22h-.62V9.76h-2.2V22h-.63V14.32H5.07V22H4.44V13.34H2.24V22H1.12v.62H22.63V4h-2.2ZM3.82,22H2.87V14.85c0-.25.4-.38.47-.43s.48.18.48.43ZM7.4,15.47c0-.24.37-.36.44-.4s.43.16.43.4V16.6H7.4Zm-1.65,0c0-.24.36-.36.43-.4s.44.16.44.4V16.6H5.75ZM6.62,22H5.75V18.48h.87Zm1.65,0H7.4V18.48h.87Zm1.66,0H9.06V18.48h.87Zm0-4.14H5.75v-.63H9.93Zm0-1.26H9.06V15.47c0-.24.36-.36.43-.4s.44.16.44.4Zm3,5.4H12V11.28c0-.26.39-.39.47-.44s.47.18.47.44Zm5.24-9.89c0-.23.37-.35.43-.39s.44.16.44.39v1.14h-.87Zm-1.65,0c0-.23.36-.35.43-.39s.43.16.43.39v1.14H16.5Zm-1.66,0c0-.23.37-.35.44-.39s.43.16.43.39v1.14h-.87Zm0,1.77H19v.62H14.84ZM15.71,22h-.87V15.13h.87Zm1.65,0H16.5V15.13h.86ZM19,22h-.87V15.13H19Zm2-16.44c0-.26.4-.39.47-.44s.47.18.47.44V20h-.94Zm0,15.08H22V22h-.94Z"/><path d="M21.29,2.42c0-.13.2-.2.24-.22s.24.09.24.22V2.8h.57V2.31l-.43-.43h0V.74h-.19L21.53,0l-.19.74h-.19V1.88h0l-.43.43V2.8h.57Z"/><path d="M12.2,8.14c0-.13.2-.2.24-.22s.24.09.24.22v.38h.57V8l-.43-.43h0V6.46h-.19l-.19-.74-.19.74h-.19V7.6h0L11.63,8v.49h.57Z"/><path d="M3.11,11.72c0-.13.2-.2.23-.22s.24.09.24.22v.38h.58v-.49l-.44-.43h0V10H3.53L3.34,9.3,3.16,10H3v1.14H3l-.43.43v.49h.58Z"/><polygon points="33.29 3.64 33.66 3.19 30.72 3.19 31.09 3.64 33.29 3.64"/><path d="M32,2.42c0-.13.2-.2.24-.22s.24.09.24.22V2.8H33V2.31l-.43-.43h0V.74h-.19L32.19,0,32,.74h-.19V1.88h0l-.43.43V2.8H32Z"/><polygon points="42.38 9.36 42.75 8.91 39.81 8.91 40.18 9.36 42.38 9.36"/><polygon points="51.48 12.94 51.84 12.49 48.91 12.49 49.28 12.94 51.48 12.94"/><path d="M41,8.14c0-.13.2-.2.24-.22s.24.09.24.22v.38h.57V8l-.43-.43h0V6.46h-.19l-.19-.74-.19.74H40.9V7.6h0L40.47,8v.49H41Z"/><path d="M50.14,11.72c0-.13.2-.2.24-.22s.23.09.23.22v.38h.58v-.49l-.43-.43h0V10h-.2l-.18-.74-.19.74H50v1.14h0l-.44.43v.49h.58Z"/><path d="M23.26,23.88h7.2V20.64h-7.2Zm5.64-2.07c0-.24.37-.35.43-.4s.44.16.44.4v1.44H28.9Zm-1.65,0c0-.24.36-.35.43-.4s.43.16.43.4v1.44h-.86Zm-1.66,0c0-.24.37-.35.43-.4s.44.16.44.4v1.44h-.87Zm-1.65,0c0-.24.36-.35.43-.4s.43.16.43.4v1.44h-.86Z"/><path d="M65.36,20.6a2.2,2.2,0,0,0-.75-.46,2.67,2.67,0,0,0-1-.16H61.85a.05.05,0,0,0-.05,0,.08.08,0,0,0,0,.07.1.1,0,0,0,0,.07.05.05,0,0,0,.05,0l.15,0,.14,0a.33.33,0,0,1,.18.11.47.47,0,0,1,.1.2,1.5,1.5,0,0,1,0,.24,2.44,2.44,0,0,1,0,.27v2.43a.88.88,0,0,1,0,.26.48.48,0,0,1-.1.17.51.51,0,0,1-.18.09.83.83,0,0,1-.26.06.1.1,0,0,0-.07,0,.11.11,0,0,0,0,.08.19.19,0,0,0,0,.07s0,0,.06,0l.23,0,.21,0h.45a4.19,4.19,0,0,1,.48,0,4.93,4.93,0,0,0,.55,0,3.12,3.12,0,0,0,.88-.13,1.79,1.79,0,0,0,.7-.39,1.85,1.85,0,0,0,.47-.65,2.36,2.36,0,0,0,.17-.92,2.13,2.13,0,0,0-.18-.88A2.08,2.08,0,0,0,65.36,20.6Zm-.22,2.34a2,2,0,0,1-.27.57,1.15,1.15,0,0,1-.41.35,1.11,1.11,0,0,1-.52.12,2.29,2.29,0,0,1-.41,0,.35.35,0,0,1-.23-.13.43.43,0,0,1-.11-.28,3.25,3.25,0,0,1,0-.5V20.49c0-.09,0-.14.05-.17a.25.25,0,0,1,.17-.05,2.51,2.51,0,0,1,.88.13,1.39,1.39,0,0,1,.57.36,1.55,1.55,0,0,1,.31.6,3.35,3.35,0,0,1,.09.81A3,3,0,0,1,65.14,22.94Z"/><path d="M74.53,20a2.06,2.06,0,0,0-.36,0l-.33,0-.35,0a1.77,1.77,0,0,0-.32,0,.05.05,0,0,0,0,0,.15.15,0,0,0,0,.07.19.19,0,0,0,0,.07s0,0,0,0l.19,0a.28.28,0,0,1,.13,0,.2.2,0,0,1,.08.08.4.4,0,0,1,.07.16.87.87,0,0,1,0,.21c0,.09,0,.18,0,.28v1.61a1.49,1.49,0,0,1-.32,1.07,1.23,1.23,0,0,1-.93.34,1.19,1.19,0,0,1-.51-.11,1,1,0,0,1-.35-.29,1,1,0,0,1-.21-.42,1.63,1.63,0,0,1-.07-.5V20.94a1.78,1.78,0,0,1,0-.35.52.52,0,0,1,.08-.23.41.41,0,0,1,.18-.12,1.22,1.22,0,0,1,.32-.06s0,0,0,0a.19.19,0,0,0,0-.07A.15.15,0,0,0,72,20a.06.06,0,0,0-.06,0h-.24l-.23,0H71l-.49,0A3.78,3.78,0,0,0,70,20a.05.05,0,0,0,0,0,.08.08,0,0,0,0,.07.1.1,0,0,0,0,.07.05.05,0,0,0,0,0,1.22,1.22,0,0,1,.32.06.47.47,0,0,1,.17.14.4.4,0,0,1,.09.23,1.62,1.62,0,0,1,0,.33V22.7a2.6,2.6,0,0,0,.1.74,1.15,1.15,0,0,0,.31.5,1.32,1.32,0,0,0,.54.28,2.91,2.91,0,0,0,.77.09,2.28,2.28,0,0,0,.78-.12,1.35,1.35,0,0,0,.52-.34,1.52,1.52,0,0,0,.29-.55,2.75,2.75,0,0,0,.09-.73V21.52a2.44,2.44,0,0,0,0-.26,2.81,2.81,0,0,1,0-.3,2.3,2.3,0,0,1,0-.28.81.81,0,0,1,0-.21,1.44,1.44,0,0,1,.07-.16.3.3,0,0,1,.08-.08.2.2,0,0,1,.11,0l.18,0a.06.06,0,0,0,.06,0,.19.19,0,0,0,0-.07.14.14,0,0,0,0-.07A.06.06,0,0,0,74.53,20Z"/><path d="M81.83,22.41a1,1,0,0,0-.32-.23,3.08,3.08,0,0,0-.44-.18,0,0,0,0,1,0,0s0,0,0-.05a1.55,1.55,0,0,0,.29-.14,1.08,1.08,0,0,0,.24-.18.82.82,0,0,0,.16-.25.9.9,0,0,0,.06-.34.86.86,0,0,0-.15-.52,1,1,0,0,0-.37-.31,1.68,1.68,0,0,0-.51-.15,3.08,3.08,0,0,0-.51,0H78.6a.06.06,0,0,0-.06,0,.14.14,0,0,0,0,.07.19.19,0,0,0,0,.07.06.06,0,0,0,.06,0l.14,0,.15,0a.42.42,0,0,1,.18.11.61.61,0,0,1,.09.2.86.86,0,0,1,0,.24,2.44,2.44,0,0,1,0,.27v2.42a1,1,0,0,1,0,.27.34.34,0,0,1-.1.16.32.32,0,0,1-.18.1l-.26.05s-.06,0-.07.05a.1.1,0,0,0,0,.07.09.09,0,0,0,0,.07.08.08,0,0,0,.07,0l.23,0h1.84a2.76,2.76,0,0,0,.51-.05,1.29,1.29,0,0,0,.45-.18.9.9,0,0,0,.31-.33,1.15,1.15,0,0,0,.11-.55,1.33,1.33,0,0,0-.06-.42A1,1,0,0,0,81.83,22.41ZM79.9,20.53a1,1,0,0,1,0-.22s.06-.07.14-.07h.22a.93.93,0,0,1,.63.19.79.79,0,0,1,.21.62,1,1,0,0,1-.07.42.62.62,0,0,1-.2.25.69.69,0,0,1-.3.13,2.11,2.11,0,0,1-.38,0h-.12a.11.11,0,0,1-.11-.06.15.15,0,0,1,0-.11Zm1.26,3.23a.65.65,0,0,1-.54.21,1.87,1.87,0,0,1-.38,0,.29.29,0,0,1-.22-.12.61.61,0,0,1-.1-.29c0-.14,0-.32,0-.54v-.56a.42.42,0,0,1,0-.2.18.18,0,0,1,.17-.08h.12a2,2,0,0,1,.43,0,1,1,0,0,1,.35.15.8.8,0,0,1,.23.3,1.16,1.16,0,0,1,.09.49A1,1,0,0,1,81.16,23.76Z"/><path d="M90.47,24.05l-.17,0a.47.47,0,0,1-.15-.06,1.22,1.22,0,0,1-.14-.16,1.17,1.17,0,0,1-.15-.28c-.11-.28-.23-.57-.36-.88s-.25-.63-.37-.95l-.37-.93c-.12-.31-.24-.6-.34-.87a.2.2,0,0,0-.14-.05.1.1,0,0,0-.1.05l-1.42,3.59a1.56,1.56,0,0,1-.13.26.59.59,0,0,1-.13.17.42.42,0,0,1-.14.09l-.18.05h-.09a.09.09,0,0,0-.06,0,.22.22,0,0,0,0,.08.14.14,0,0,0,0,.06.07.07,0,0,0,.06,0,1.66,1.66,0,0,0,.32,0,1.72,1.72,0,0,1,.32,0,2.36,2.36,0,0,1,.37,0l.35,0a.07.07,0,0,0,.06,0,.19.19,0,0,0,0-.07.14.14,0,0,0,0-.07.05.05,0,0,0-.06,0l-.19,0L87.12,24c-.05,0-.09-.05-.11-.09a.18.18,0,0,1,0-.13.49.49,0,0,1,0-.15l.28-.74a.2.2,0,0,1,.07-.1.21.21,0,0,1,.13,0h1.1l.18,0a.2.2,0,0,1,.08.11,3.63,3.63,0,0,1,.15.39c0,.1.07.19.09.25a.73.73,0,0,1,0,.16.38.38,0,0,1,0,.1A.22.22,0,0,1,89,24a1,1,0,0,1-.31.07l-.07,0a.14.14,0,0,0,0,.06.11.11,0,0,0,0,.08.07.07,0,0,0,.06,0,3.52,3.52,0,0,0,.45,0,4,4,0,0,1,.5,0,2.82,2.82,0,0,1,.42,0,2.34,2.34,0,0,0,.38,0s0,0,0,0a.14.14,0,0,0,0-.06.24.24,0,0,0,0-.08A.1.1,0,0,0,90.47,24.05Zm-1.79-1.58a.17.17,0,0,1-.12,0h-1a.12.12,0,0,1-.09,0s0,0,0-.11L88,20.89a.06.06,0,0,1,.1,0l.55,1.47C88.7,22.41,88.7,22.45,88.68,22.47Z"/><path d="M96.43,24.05a1.82,1.82,0,0,1-.31-.05.38.38,0,0,1-.19-.09.38.38,0,0,1-.09-.18,1.38,1.38,0,0,1,0-.32V20.94c0-.14,0-.26,0-.35a.53.53,0,0,1,.09-.23.41.41,0,0,1,.18-.12,1.13,1.13,0,0,1,.31-.06.05.05,0,0,0,0,0s0,0,0-.07a.14.14,0,0,0,0-.07,0,0,0,0,0,0,0h-.25L96,20h-.47L95,20a3.78,3.78,0,0,0-.46,0,.09.09,0,0,0-.06,0,.15.15,0,0,0,0,.07.17.17,0,0,0,0,.07.09.09,0,0,0,.06,0,1.13,1.13,0,0,1,.31.06.44.44,0,0,1,.18.14.61.61,0,0,1,.09.23,2.92,2.92,0,0,1,0,.33v2.47a2.33,2.33,0,0,1,0,.32.32.32,0,0,1-.27.27,2,2,0,0,1-.32.05.1.1,0,0,0,0,0,.24.24,0,0,0,0,.08.14.14,0,0,0,0,.06.05.05,0,0,0,0,0l.47,0a4.1,4.1,0,0,1,.49,0,3.54,3.54,0,0,1,.46,0,3.64,3.64,0,0,0,.48,0,.08.08,0,0,0,.07,0,.14.14,0,0,0,0-.06.24.24,0,0,0,0-.08Z"/><path d="M109,20.21a1.3,1.3,0,0,0-.43-.18,2,2,0,0,0-.49-.05h-.48L107,20h-.4a2.24,2.24,0,0,0-.38,0,.06.06,0,0,0-.06,0,.14.14,0,0,0,0,.07.19.19,0,0,0,0,.07.06.06,0,0,0,.06,0l.14,0,.15,0a.34.34,0,0,1,.18.11.85.85,0,0,1,.1.19,2,2,0,0,1,0,.26v2.63a1.32,1.32,0,0,1,0,.3.37.37,0,0,1-.08.18.35.35,0,0,1-.18.1,1.72,1.72,0,0,1-.29.05.09.09,0,0,0-.06,0,.11.11,0,0,0,0,.07.14.14,0,0,0,0,.07s0,0,.06,0a3.4,3.4,0,0,0,.45,0,5.65,5.65,0,0,1,1,0,4.73,4.73,0,0,0,.58,0,.07.07,0,0,0,.06,0,.09.09,0,0,0,0-.07.19.19,0,0,0,0-.07.08.08,0,0,0-.07,0l-.31,0a.55.55,0,0,1-.23-.11.38.38,0,0,1-.14-.2,1.05,1.05,0,0,1,0-.34v-.92c0-.06,0-.1,0-.11l.09,0a3.06,3.06,0,0,0,.7-.08,1.61,1.61,0,0,0,.57-.21,1.07,1.07,0,0,0,.39-.37,1.17,1.17,0,0,0,.13-.59,1,1,0,0,0-.11-.51A.89.89,0,0,0,109,20.21Zm-.34,1.37a.53.53,0,0,1-.18.28.64.64,0,0,1-.33.16,2.47,2.47,0,0,1-.52.05h-.1s0,0,0-.07V20.55a.33.33,0,0,1,.08-.26.57.57,0,0,1,.32-.06.83.83,0,0,1,.63.2,1.08,1.08,0,0,1,.19.71A1.42,1.42,0,0,1,108.69,21.58Z"/><path d="M118.28,24.05l-.16,0A.47.47,0,0,1,118,24a.56.56,0,0,1-.14-.16,1.17,1.17,0,0,1-.15-.28c-.12-.28-.24-.57-.36-.88l-.38-.95-.37-.93c-.12-.31-.23-.6-.34-.87a.17.17,0,0,0-.13-.05c-.06,0-.09,0-.1.05l-1.43,3.59a1.62,1.62,0,0,1-.12.26,1.47,1.47,0,0,1-.13.17.6.6,0,0,1-.15.09L114,24h-.1a.1.1,0,0,0-.05,0,.12.12,0,0,0,0,.08.09.09,0,0,0,0,.06.05.05,0,0,0,0,0,1.69,1.69,0,0,0,.33,0,1.56,1.56,0,0,1,.31,0,2.36,2.36,0,0,1,.37,0l.35,0a.07.07,0,0,0,.06,0,.1.1,0,0,0,0-.07.08.08,0,0,0,0-.07.05.05,0,0,0-.06,0l-.18,0-.16-.05a.33.33,0,0,1-.11-.09.18.18,0,0,1,0-.13.49.49,0,0,1,0-.15l.29-.74a.29.29,0,0,1,.06-.1.23.23,0,0,1,.13,0h1.11l.17,0a.17.17,0,0,1,.09.11l.15.39c0,.1.06.19.09.25s0,.12,0,.16,0,.07,0,.1a.24.24,0,0,1-.1.21,1,1,0,0,1-.32.07.09.09,0,0,0-.06,0,.14.14,0,0,0,0,.06.19.19,0,0,0,0,.08.1.1,0,0,0,.07,0l.44,0a4.1,4.1,0,0,1,.5,0,2.68,2.68,0,0,1,.42,0,2.47,2.47,0,0,0,.39,0,.05.05,0,0,0,0,0,.13.13,0,0,0,0-.06.22.22,0,0,0,0-.08A.09.09,0,0,0,118.28,24.05Zm-1.79-1.58a.17.17,0,0,1-.12,0h-1a.13.13,0,0,1-.1,0s0,0,0-.11l.57-1.47a.05.05,0,0,1,0,0,.06.06,0,0,1,.06,0l.54,1.47C116.51,22.41,116.51,22.45,116.49,22.47Z"/><path d="M126.15,23.11h-.09s0,0,0,.05a1.61,1.61,0,0,1-.07.31.68.68,0,0,1-.1.21.47.47,0,0,1-.15.13l-.22.09a.77.77,0,0,1-.2,0h-.52l-.19,0-.23-.09a.44.44,0,0,1-.13-.14.56.56,0,0,1-.07-.23,1.67,1.67,0,0,1,0-.34V20.94a1.78,1.78,0,0,1,0-.35.52.52,0,0,1,.08-.23.41.41,0,0,1,.18-.12,1.22,1.22,0,0,1,.32-.06s0,0,0,0a.19.19,0,0,0,0-.07.15.15,0,0,0,0-.07.06.06,0,0,0-.06,0h-.24l-.23,0h-.47l-.49,0a3.78,3.78,0,0,0-.46,0,.05.05,0,0,0,0,0,.08.08,0,0,0,0,.07.1.1,0,0,0,0,.07.05.05,0,0,0,0,0,1.22,1.22,0,0,1,.32.06.47.47,0,0,1,.17.14.48.48,0,0,1,.09.23,2.92,2.92,0,0,1,0,.33h0v2.47a2.58,2.58,0,0,1,0,.32.31.31,0,0,1-.09.18.3.3,0,0,1-.18.08l-.31.06a.1.1,0,0,0-.07,0,.19.19,0,0,0,0,.07.14.14,0,0,0,0,.07.09.09,0,0,0,.07,0l.44,0H126c.07,0,.11,0,.12,0a.09.09,0,0,0,0-.05,2.43,2.43,0,0,1,0-.47c0-.15,0-.32,0-.49a0,0,0,0,0,0-.05A.12.12,0,0,0,126.15,23.11Z"/><path d="M135.09,24.05l-.16,0a.47.47,0,0,1-.15-.06.56.56,0,0,1-.14-.16,1.17,1.17,0,0,1-.15-.28c-.12-.28-.24-.57-.36-.88l-.38-.95-.37-.93c-.12-.31-.23-.6-.34-.87a.19.19,0,0,0-.13-.05c-.06,0-.09,0-.1.05l-1.43,3.59a1.62,1.62,0,0,1-.12.26,1.47,1.47,0,0,1-.13.17A.46.46,0,0,1,131,24l-.17.05h-.1a.13.13,0,0,0-.06,0,.22.22,0,0,0,0,.08.09.09,0,0,0,0,.06.05.05,0,0,0,.05,0,1.69,1.69,0,0,0,.33,0,1.56,1.56,0,0,1,.31,0,2.36,2.36,0,0,1,.37,0l.35,0a.07.07,0,0,0,.06,0,.1.1,0,0,0,0-.07.08.08,0,0,0,0-.07.05.05,0,0,0-.06,0l-.18,0-.16-.05a.33.33,0,0,1-.11-.09.18.18,0,0,1,0-.13.49.49,0,0,1,0-.15l.29-.74a.29.29,0,0,1,.06-.1.23.23,0,0,1,.13,0h1.11l.17,0a.17.17,0,0,1,.09.11l.15.39c0,.1.06.19.09.25l0,.16s0,.07,0,.1a.24.24,0,0,1-.1.21,1,1,0,0,1-.32.07.09.09,0,0,0-.06,0,.07.07,0,0,0,0,.06.19.19,0,0,0,0,.08.1.1,0,0,0,.07,0l.44,0a4.1,4.1,0,0,1,.5,0,2.68,2.68,0,0,1,.42,0,2.38,2.38,0,0,0,.39,0s0,0,.05,0a.13.13,0,0,0,0-.06.22.22,0,0,0,0-.08A.13.13,0,0,0,135.09,24.05Zm-1.79-1.58a.17.17,0,0,1-.12,0h-1a.13.13,0,0,1-.1,0s0,0,0-.11l.57-1.47a.06.06,0,0,1,.06,0,.05.05,0,0,1,0,0l.54,1.47C133.32,22.41,133.32,22.45,133.3,22.47Z"/><path d="M143.4,23.3v-.25l0-.25a.05.05,0,0,0,0-.05l-.07,0h-.07s0,0,0,.05a2,2,0,0,1-.17.58,1.43,1.43,0,0,1-.32.44,1,1,0,0,1-.4.2,3,3,0,0,1-.55.05,1.16,1.16,0,0,1-.66-.18,1.38,1.38,0,0,1-.44-.46,1.9,1.9,0,0,1-.25-.64,3.36,3.36,0,0,1-.08-.71,3.69,3.69,0,0,1,.07-.65,1.83,1.83,0,0,1,.22-.62,1.35,1.35,0,0,1,.43-.46,1.31,1.31,0,0,1,.69-.17,1.49,1.49,0,0,1,.89.26,1.59,1.59,0,0,1,.51.84s0,0,0,0h.08l.07,0s0,0,0,0,0-.25,0-.36a2.19,2.19,0,0,1,0-.36c0-.07,0-.14,0-.22a1.18,1.18,0,0,1,0-.2.05.05,0,0,0,0,0l-.06,0h-.07s0,0,0,0a.14.14,0,0,1-.14.12l-.1,0-.13-.06a3.8,3.8,0,0,0-.47-.18,1.72,1.72,0,0,0-.52-.07,2.57,2.57,0,0,0-.9.15,1.85,1.85,0,0,0-.71.44,2,2,0,0,0-.47.71,2.68,2.68,0,0,0-.17,1,2.23,2.23,0,0,0,.54,1.6,2.21,2.21,0,0,0,1.65.55h.31l.28,0a1.14,1.14,0,0,0,.26-.09,1.66,1.66,0,0,0,.27-.13.31.31,0,0,1,.15,0,.27.27,0,0,1,.12,0l.08.09a.49.49,0,0,1,0,.11.1.1,0,0,0,0,.05h.07l.06,0a.08.08,0,0,0,0-.06l0-.47C143.4,23.58,143.4,23.44,143.4,23.3Z"/><path d="M151.24,23.11h-.09s0,0,0,.05a1.61,1.61,0,0,1-.07.31.68.68,0,0,1-.1.21.47.47,0,0,1-.15.13l-.22.09a.88.88,0,0,1-.2,0h-.52l-.2,0-.19-.08a.5.5,0,0,1-.14-.15.52.52,0,0,1-.08-.23,1.72,1.72,0,0,1,0-.34V22.3q0-.07,0-.09a.07.07,0,0,1,.06,0,2.9,2.9,0,0,1,.46,0,.53.53,0,0,1,.25.08.25.25,0,0,1,.11.17,1.86,1.86,0,0,1,0,.3.07.07,0,0,0,0,0l.07,0a.09.09,0,0,0,.07,0,.05.05,0,0,0,0-.05c0-.14,0-.27,0-.37a3.49,3.49,0,0,1,0-.35,1.09,1.09,0,0,1,0-.19c0-.06,0-.11,0-.17s0-.1,0-.15a1.09,1.09,0,0,0,0-.18.06.06,0,0,0,0-.06l-.07,0-.07,0a.09.09,0,0,0,0,.06,1.46,1.46,0,0,1,0,.27.29.29,0,0,1-.11.18.66.66,0,0,1-.25.09l-.46,0a.07.07,0,0,1-.06,0s0,0,0-.11v-1.1a.86.86,0,0,1,0-.25.19.19,0,0,1,.07-.13.34.34,0,0,1,.16,0h.64a1.69,1.69,0,0,1,.35,0,.4.4,0,0,1,.22.09.47.47,0,0,1,.12.21,3.1,3.1,0,0,1,.09.38s0,0,0,.05H151l.07,0s0,0,0,0,0-.34,0-.53v-.17a.78.78,0,0,1,0-.16c0-.06,0-.09,0-.1h-2.35l-.4,0h-.39a.05.05,0,0,0-.05,0,.1.1,0,0,0,0,.07.08.08,0,0,0,0,.07.05.05,0,0,0,.05,0l.15,0,.14,0a.29.29,0,0,1,.18.12.44.44,0,0,1,.1.19,1,1,0,0,1,0,.25,2.35,2.35,0,0,1,0,.27v2.42a.93.93,0,0,1,0,.26.5.5,0,0,1-.11.17.4.4,0,0,1-.17.1l-.26.05s-.07,0-.08,0a.08.08,0,0,0,0,.08.1.1,0,0,0,.1.1l.42,0h2.75c.07,0,.11,0,.12,0a.09.09,0,0,0,0-.05,2.43,2.43,0,0,1,0-.47c0-.15,0-.32.05-.49,0,0,0,0,0-.05A.1.1,0,0,0,151.24,23.11Z"/><path d="M117.21,7.92h4.46v.49h1.79V2.13H119.3l1-1.15L118.08.43V2.14h-2.65V8.41h1.78Zm0-4.95h4.46V4.84h-4.46Zm0,2.7h4.46V7.09h-4.46Z"/><polygon points="124.71 14.74 124.71 14.44 124.71 13.91 120.37 13.91 120.37 12.32 123.86 12.32 123.86 12.04 123.86 11.74 123.86 11.49 120.37 11.49 120.37 9.89 124.43 9.89 124.43 9.06 124.41 9.06 114.47 9.06 114.46 9.06 114.46 9.89 118.51 9.89 118.51 11.49 115.03 11.49 115.03 11.74 115.03 12.04 115.03 12.32 118.51 12.32 118.51 13.91 114.17 13.91 114.17 14.74 124.71 14.74 124.71 14.74"/><path d="M149.5,15.35V9.72h-8.44v5.63H143v-.41h4.57v.41ZM143,14.11V10.56h4.57v3.55Z"/><path d="M141.55,3.45h7.35l-.3,1.36V4.56h-6.66V9.18h1.87V8.81h2.92v.37h1.87V5.35l2.74-2.21-2.08-1.47-.19,1h-2.65V.53h-2V2.62h-3c0-.29-.1-.58-.17-.88L141,1.66,139.41,4.8l1.92.78A7.22,7.22,0,0,0,141.55,3.45ZM146.73,8h-2.92V5.39h2.92Z"/><polygon points="97.12 8.21 98.85 8.21 98.85 7.38 97.12 7.38 97.12 5.28 98.85 5.28 98.85 4.45 97.12 4.45 97.12 3.02 98.85 3.02 98.85 2.19 98.84 2.19 93.38 2.19 93.38 2.19 93.38 2.49 93.38 2.49 93.38 3.02 95.12 3.02 95.12 4.45 93.38 4.45 93.38 5.28 95.12 5.28 95.12 7.38 93.38 7.38 93.38 8.21 95.12 8.21 95.12 10.42 92.76 10.42 92.76 11.25 95.12 11.25 95.12 15.22 97.12 15.22 97.12 11.25 99.47 11.25 99.47 10.42 97.12 10.42 97.12 8.21"/><path d="M93.75,8.94h-1.9c0-.53.05-1.06.05-1.6v-1h1.66V5.49H91.9v-3c.6-.12,1.21-.27,1.82-.45L92.36.47l-4.13,2,.09.32q.78,0,1.59-.06V5.49H88.32v.83h1.59V7.69c0,.32,0,.76,0,1.25H88.14v.83h1.67a21.94,21.94,0,0,1-1.11,5.57h.24a7.66,7.66,0,0,0,2.85-5.57h2Z"/><path d="M65,3.12A4.11,4.11,0,0,0,62.53.9l-.26.15,1.1,2.86Z"/><path d="M73.44,13.12H66a3,3,0,0,1-1.18-.25V4.76H61.91v.83h1.14v7.21l-1.27.71,1.49,1.43a4.5,4.5,0,0,0,.84-1.21,2.6,2.6,0,0,0,1.94,1h6.58Z"/><path d="M67.53,11.69H71v.5h1.72V3.26h-2.6V.71H68.43V3.26H65.81v8.93h1.72Zm2.62-7.6H71V7.2h-.88Zm0,3.94H71v2.83h-.88ZM67.53,4.09h.9V7.2h-.9Zm0,3.94h.9v2.83h-.9Z"/><rect x="80.66" y="0.71" width="0.27" height="14.22"/><rect x="106.69" y="0.71" width="0.27" height="14.22"/><rect x="131.93" y="0.71" width="0.27" height="14.22"/></g></g></svg>