<?xml version="1.0" encoding="utf-8"?>
<!-- Generator: Adobe Illustrator 24.0.1, SVG Export Plug-In . SVG Version: 6.00 Build 0)  -->
<svg version="1.1" id="icons" xmlns="http://www.w3.org/2000/svg" xmlns:xlink="http://www.w3.org/1999/xlink" x="0px" y="0px"
	 viewBox="0 0 233.7 233.7" style="enable-background:new 0 0 233.7 233.7;" xml:space="preserve">
<g>
	<g id="XMLID_3_">
		<g>
			<path d="M98.5,93.5H80c-10.4,0-16.3,12-9.8,20.2l36.8,47c5,6.4,14.7,6.4,19.7,0l36.8-47c6.4-8.2,0.6-20.2-9.8-20.2h-17.6H98.5z"
				/>
		</g>
	</g>
	<path d="M130.8,0h-27.9c-2.8,0-5,2.2-5,5v108.5c0,2.8,2.2,5,5,5h27.9c2.8,0,5-2.2,5-5V5C135.8,2.2,133.6,0,130.8,0z"/>
</g>
<path d="M29.6,233.7h174.5c16.4,0,29.6-13.3,29.6-29.6v-29.6c0-16.4-13.3-29.6-29.6-29.6V197H29.6v-52.3C13.3,144.8,0,158,0,174.4
	V204C0,220.4,13.3,233.7,29.6,233.7z"/>
</svg>
