<?xml version="1.0" encoding="utf-8"?>
<!-- Generator: Adobe Illustrator 22.1.0, SVG Export Plug-In . SVG Version: 6.00 Build 0)  -->
<svg version="1.1" id="圖層_1" xmlns="http://www.w3.org/2000/svg" xmlns:xlink="http://www.w3.org/1999/xlink" x="0px" y="0px"
	 viewBox="0 0 50 50" style="enable-background:new 0 0 50 50;" xml:space="preserve">
<g>
	<g>
		<g>
			<path d="M15.5,19.5c-0.6,0.7-0.5,1.7,0.2,2.3l6.1,5h-9c-0.9,0-1.6,0.7-1.6,1.6c0,0.9,0.7,1.6,1.6,1.6h10.6v3.2H12.8
				c-0.9,0-1.6,0.7-1.6,1.6c0,0.9,0.7,1.6,1.6,1.6h10.6v4.8c0,0.9,0.7,1.6,1.6,1.6c0.9,0,1.6-0.7,1.6-1.6v-4.8h10.6
				c0.9,0,1.6-0.7,1.6-1.6c0-0.9-0.7-1.6-1.6-1.6H26.6V30h10.6c0.9,0,1.6-0.7,1.6-1.6c0-0.9-0.7-1.6-1.6-1.6h-9.1l5.7-5
				c0.7-0.6,0.7-1.6,0.2-2.3c-0.6-0.7-1.6-0.7-2.3-0.2L25,25.2l-7.2-5.9C17.1,18.7,16.1,18.8,15.5,19.5z M40.5,0H9.5
				C4.3,0,0,4.3,0,9.6v30.9C0,45.7,4.3,50,9.5,50h31.1c5.2,0,9.5-4.3,9.5-9.6V9.6C50,4.3,45.7,0,40.5,0z M9.5,3.7h31.1
				c2.2,0,4.1,1.3,5.1,3.1l-20.7,5.9L4.3,6.9C5.3,5,7.2,3.7,9.5,3.7z M46.3,40.4c0,3.2-2.6,5.8-5.8,5.8H9.5c-3.2,0-5.8-2.6-5.8-5.8
				V10.6l21.2,6l21.4-6.1V40.4z"/>
		</g>
	</g>
</g>
</svg>
