<?xml version="1.0" encoding="utf-8"?>
<!-- Generator: Adobe Illustrator 22.1.0, SVG Export Plug-In . SVG Version: 6.00 Build 0)  -->
<svg version="1.1" id="圖層_1" xmlns="http://www.w3.org/2000/svg" xmlns:xlink="http://www.w3.org/1999/xlink" x="0px" y="0px"
	 viewBox="0 0 50 50" style="enable-background:new 0 0 50 50;" xml:space="preserve">
<g>
	<polygon points="6.1,28.4 7.8,23.3 9.5,28.4 12.1,28.4 15.3,20.5 12.7,20.5 10.7,25.6 9.1,20.5 6.5,20.5 4.8,25.6 2.9,20.5 
		0.4,20.5 3.5,28.4 	"/>
	<polygon points="26.3,20.5 23.7,20.5 22,25.6 20.1,20.5 17.6,20.5 20.7,28.4 23.3,28.4 25,23.3 26.7,28.4 29.2,28.4 32.4,20.5 
		29.8,20.5 27.9,25.6 	"/>
	<polygon points="45.1,25.6 43.4,20.5 40.9,20.5 39.2,25.6 37.3,20.5 34.7,20.5 37.9,28.4 40.5,28.4 42.2,23.3 43.9,28.4 46.4,28.4 
		49.6,20.5 47,20.5 	"/>
	<path d="M43.8,39h-5.6c1.3-2.1,2.3-4.4,3-6.9h-1.5c-0.7,2.5-1.8,4.8-3.2,6.9H15c-1.4-2.1-2.5-4.4-3.2-6.9h-1.5
		c0.7,2.5,1.7,4.8,3,6.9H5.9c-1.5-2.1-2.7-4.4-3.5-6.9H0.9C3.9,42.4,13.5,50,24.8,50s20.9-7.6,24-17.9h-1.5
		C46.5,34.6,45.3,36.9,43.8,39z M7.1,40.4h7.1c2.3,3.3,5.4,6.1,9,8C16.8,48,11.1,45,7.1,40.4z M16.1,40.4h19.2
		c-2.5,3.3-5.8,5.9-9.6,7.6C21.9,46.3,18.6,43.7,16.1,40.4z M28.6,48.2c3.4-1.9,6.3-4.6,8.6-7.8h5.4C39,44.5,34.1,47.3,28.6,48.2z"
		/>
	<path d="M5.9,11.1h7.4c-1.2,2-2.2,4.1-2.8,6.4H12c0.7-2.3,1.7-4.4,3-6.4h21.5c1.3,2,2.3,4.1,3,6.4H41c-0.7-2.3-1.6-4.4-2.8-6.4h5.6
		c1.4,1.9,2.5,4.1,3.3,6.4h1.6C45.5,7.4,36,0,24.8,0S4.2,7.4,1,17.5h1.6C3.3,15.2,4.4,13.1,5.9,11.1z M42.6,9.7h-5.4
		C35,6.4,32,3.7,28.6,1.8C34.2,2.7,39.1,5.5,42.6,9.7z M25.7,2c3.8,1.7,7.1,4.4,9.7,7.7H16C18.6,6.4,21.9,3.7,25.7,2z M23.3,1.5
		c-3.6,2-6.7,4.8-9.1,8.1H7C11,5,16.8,2,23.3,1.5z"/>
</g>
</svg>
