<?xml version="1.0" encoding="utf-8"?>
<!-- Generator: Adobe Illustrator 22.1.0, SVG Export Plug-In . SVG Version: 6.00 Build 0)  -->
<svg version="1.1" id="圖層_1" xmlns="http://www.w3.org/2000/svg" xmlns:xlink="http://www.w3.org/1999/xlink" x="0px" y="0px"
	 viewBox="0 0 50 50" style="enable-background:new 0 0 50 50;" xml:space="preserve">
<style type="text/css">
	.st0{fill-rule:evenodd;clip-rule:evenodd;}
</style>
<g>
	<path class="st0" d="M47.5,40.8h-45c-1.4,0-2.5,1.1-2.5,2.5v1c0,1.4,1.1,2.5,2.5,2.5h45c1.4,0,2.5-1.1,2.5-2.5v-1
		C50,41.9,48.9,40.8,47.5,40.8z"/>
	<path class="st0" d="M47.5,22h-45C1.1,22,0,23.1,0,24.5v1C0,26.9,1.1,28,2.5,28h45c1.4,0,2.5-1.1,2.5-2.5v-1
		C50,23.1,48.9,22,47.5,22z"/>
	<path class="st0" d="M47.5,3.2h-45C1.1,3.2,0,4.3,0,5.7v1C0,8,1.1,9.2,2.5,9.2h45C48.9,9.2,50,8,50,6.7v-1
		C50,4.3,48.9,3.2,47.5,3.2z"/>
</g>
</svg>
