<?xml version="1.0" encoding="utf-8"?>
<!-- Generator: Adobe Illustrator 22.1.0, SVG Export Plug-In . SVG Version: 6.00 Build 0)  -->
<svg version="1.1" id="圖層_1" xmlns="http://www.w3.org/2000/svg" xmlns:xlink="http://www.w3.org/1999/xlink" x="0px" y="0px"
	 viewBox="0 0 50 50" style="enable-background:new 0 0 50 50;" xml:space="preserve">
<path d="M43.9,22.6c-0.1-4-1.5-22.6-19-22.6C5.2,0,5.5,22.6,5.5,22.6H2.6v16.1h2.8c0,0.1,0,0.2,0,0.3c0,8.8,7.9,9.3,10.6,9.3
	c1,1,3.1,1.8,5.5,1.8c3.4,0,6.2-1.4,6.2-3.2s-2.8-3.2-6.2-3.2c-2.5,0-4.6,0.8-5.6,1.8c-9.3-0.4-7.8-6.8-7.8-6.8h3.1V22.6H9.1H7.8
	c0,0-0.5-20.2,17-20.2s17,20.2,17,20.2h-3v16.1h8.6V22.6H43.9z"/>
</svg>
