<?xml version="1.0" encoding="utf-8"?>
<!-- Generator: Adobe Illustrator 22.1.0, SVG Export Plug-In . SVG Version: 6.00 Build 0)  -->
<svg version="1.1" id="圖層_1" xmlns="http://www.w3.org/2000/svg" xmlns:xlink="http://www.w3.org/1999/xlink" x="0px" y="0px"
	 viewBox="0 0 50 50" style="enable-background:new 0 0 50 50;" xml:space="preserve">
<g>
	<path d="M35.6,28.7c-3,2.1-6.6,3.3-10.6,3.3s-7.6-1.2-10.6-3.3C7.8,32.9,3.3,40.9,3.3,50h43.3C46.7,40.9,42.2,32.9,35.6,28.7z"/>
	<path d="M25,28.6c7.9,0,14.3-6.4,14.3-14.3S32.9,0,25,0c-7.1,0-13,5.2-14.1,12c-0.1,0.8-0.2,1.5-0.2,2.3h0v0.1c0,1,0.1,1.9,0.3,2.8
		C12.4,23.7,18.1,28.6,25,28.6z"/>
</g>
</svg>
