<?xml version="1.0" encoding="utf-8"?>
<!-- Generator: Adobe Illustrator 22.1.0, SVG Export Plug-In . SVG Version: 6.00 Build 0)  -->
<svg version="1.1" id="圖層_1" xmlns="http://www.w3.org/2000/svg" xmlns:xlink="http://www.w3.org/1999/xlink" x="0px" y="0px"
	 viewBox="0 0 50 50" style="enable-background:new 0 0 50 50;" xml:space="preserve">
<g>
	<g>
		<path d="M25,0C11.2,0,0,11.2,0,25c0,13.8,11.2,25,25,25c13.8,0,25-11.2,25-25C50,11.2,38.8,0,25,0z M25,45.5
			C13.7,45.5,4.5,36.3,4.5,25C4.5,13.7,13.7,4.5,25,4.5c11.3,0,20.5,9.2,20.5,20.5C45.5,36.3,36.3,45.5,25,45.5z M26.4,22.6v-8.8
			c5,0.3,5.6,3.3,5.6,3.7l3.4-0.3c-0.2-2.1-2.5-6-9.1-6.4V8.4h-2.8v2.5c-6.2,0.6-8.5,4.2-8.5,7.3c0,3.9,3.5,6.8,8.5,7.4v9.7
			c-2.2-0.3-5.6-1.3-5.6-4.9h-3.4c0,5,4.3,7.5,9.1,8v3.4h2.8v-3.3c5.6-0.3,9.1-3.1,9.1-7.5C35.5,25.9,32.2,23,26.4,22.6z M23.6,22.5
			c-3-0.4-5.1-2.1-5.1-4.3c0-1.2,0.5-3.7,5.1-4.3V22.5z M26.4,35.3v-9.6c5.6,0.4,5.6,3.9,5.6,5.1C32,34.1,29.2,35.1,26.4,35.3z"/>
	</g>
</g>
</svg>
