<?xml version="1.0" encoding="utf-8"?>
<!-- Generator: Adobe Illustrator 22.1.0, SVG Export Plug-In . SVG Version: 6.00 Build 0)  -->
<svg version="1.1" id="圖層_1" xmlns="http://www.w3.org/2000/svg" xmlns:xlink="http://www.w3.org/1999/xlink" x="0px" y="0px"
	 viewBox="0 0 50 50" style="enable-background:new 0 0 50 50;" xml:space="preserve">
<path d="M48.1,12.1h-6.5c1.5-2.6,2.8-6.4,0.7-9.3c-1-1.3-2.5-1.9-4.4-1.8c-3.9,0.4-9,4-12.4,8.5c-1.9-2.8-5.2-5.5-8-6.9
	c-5-2.5-7.6-1-8.7,0.1C7.7,3.9,7.1,5.4,7.2,7c0.1,1.8,0.9,3.6,1.9,5.1H1.9C0.9,12.1,0,12.9,0,14v9.2c0,1.1,0.9,1.9,1.9,1.9h0.6v22
	c0,1.1,0.9,1.9,1.9,1.9h41.1c1.1,0,1.9-0.9,1.9-1.9v-22h0.6c1.1,0,1.9-0.9,1.9-1.9V14C50,12.9,49.1,12.1,48.1,12.1z M11.6,5.4
	c0.6-0.6,2.3-0.3,4.2,0.6c3.1,1.6,5.7,4.2,6.8,6H14c-1.1-1.1-3-3.4-3-5.2C11,6.3,11.1,5.8,11.6,5.4z M23.1,45.2H6.3V25.1h16.8V45.2z
	 M23.1,21.3H4.4H3.8v-5.4h19.3V21.3z M38.3,4.8c0.4,0,0.8,0,1,0.2c1.1,1.5-0.8,5-2.2,7h-8.8C31.2,8.1,35.6,5.1,38.3,4.8z M43.7,45.2
	H26.9V25.1h16.8V45.2z M46.2,21.3h-0.6H26.9v-5.4h19.3V21.3z"/>
</svg>
