<?xml version="1.0" encoding="utf-8"?>
<!-- Generator: Adobe Illustrator 22.1.0, SVG Export Plug-In . SVG Version: 6.00 Build 0)  -->
<svg version="1.1" id="圖層_1" xmlns="http://www.w3.org/2000/svg" xmlns:xlink="http://www.w3.org/1999/xlink" x="0px" y="0px"
	 viewBox="0 0 50 50" style="enable-background:new 0 0 50 50;" xml:space="preserve">
<g>
	<path d="M33.9,28.5l6.4-6.2c0.4-0.4,0.5-1,0.4-1.5c-0.2-0.5-0.6-0.9-1.2-1l-8.8-1.3l-4-8c-0.2-0.5-0.7-0.8-1.3-0.8
		c-0.5,0-1,0.3-1.3,0.8l-4,8l-8.8,1.3c-0.5,0.1-1,0.5-1.2,1c-0.2,0.5,0,1.1,0.4,1.5l6.4,6.2l-1.5,8.8c-0.1,0.5,0.1,1.1,0.6,1.4
		c0.4,0.3,1,0.4,1.5,0.1l7.9-4.2l7.9,4.2c0.2,0.1,0.4,0.2,0.7,0.2c0.3,0,0.6-0.1,0.8-0.3c0.4-0.3,0.7-0.9,0.6-1.4L33.9,28.5z
		 M30.9,28.2l1.1,6.7l-6-3.2c-0.2-0.1-0.4-0.2-0.7-0.2c-0.2,0-0.5,0.1-0.7,0.2l-6,3.2l1.1-6.7c0.1-0.5-0.1-0.9-0.4-1.3l-4.9-4.7
		l6.7-1c0.5-0.1,0.9-0.4,1.1-0.8l3-6.1l3,6.1c0.2,0.4,0.6,0.7,1.1,0.8l6.7,1L31.3,27C31,27.3,30.8,27.8,30.9,28.2z"/>
	<path d="M25.4,8.9c0.8,0,1.4-0.6,1.4-1.4V1.4c0-0.8-0.6-1.4-1.4-1.4C24.6,0,24,0.6,24,1.4v6.1C24,8.3,24.6,8.9,25.4,8.9z"/>
	<path d="M25.4,41.1c-0.8,0-1.4,0.6-1.4,1.4v6.1c0,0.8,0.6,1.4,1.4,1.4c0.8,0,1.4-0.6,1.4-1.4v-6.1C26.8,41.7,26.2,41.1,25.4,41.1z"
		/>
	<path d="M48.5,23.8h-6.1c-0.8,0-1.4,0.6-1.4,1.4s0.6,1.4,1.4,1.4h6.1c0.8,0,1.4-0.6,1.4-1.4S49.3,23.8,48.5,23.8z"/>
	<path d="M9,25.3c0-0.8-0.6-1.4-1.4-1.4H1.5c-0.8,0-1.4,0.6-1.4,1.4s0.6,1.4,1.4,1.4h6.1C8.3,26.7,9,26,9,25.3z"/>
	<path d="M37.3,14c0.4,0,0.7-0.1,1-0.4l4.3-4.3c0.6-0.6,0.6-1.5,0-2c-0.6-0.6-1.5-0.6-2,0l-4.3,4.3c-0.6,0.6-0.6,1.5,0,2
		C36.6,13.9,37,14,37.3,14z"/>
	<path d="M11.5,36.4l-4.3,4.3c-0.6,0.6-0.6,1.5,0,2c0.3,0.3,0.6,0.4,1,0.4s0.7-0.1,1-0.4l4.3-4.3c0.6-0.6,0.6-1.5,0-2
		S12,35.8,11.5,36.4z"/>
	<path d="M11.5,13.6c0.3,0.3,0.6,0.4,1,0.4s0.7-0.1,1-0.4c0.6-0.6,0.6-1.5,0-2L9.2,7.3c-0.6-0.6-1.5-0.6-2,0c-0.6,0.6-0.6,1.5,0,2
		L11.5,13.6z"/>
	<path d="M38.3,36.4c-0.6-0.6-1.5-0.6-2,0s-0.6,1.5,0,2l4.3,4.3c0.3,0.3,0.6,0.4,1,0.4s0.7-0.1,1-0.4c0.6-0.6,0.6-1.5,0-2L38.3,36.4
		z"/>
</g>
</svg>
