<?xml version="1.0" encoding="utf-8"?>
<!-- Generator: Adobe Illustrator 22.1.0, SVG Export Plug-In . SVG Version: 6.00 Build 0)  -->
<svg version="1.1" id="圖層_1" xmlns="http://www.w3.org/2000/svg" xmlns:xlink="http://www.w3.org/1999/xlink" x="0px" y="0px"
	 viewBox="0 0 50 15.4" style="enable-background:new 0 0 50 15.4;" xml:space="preserve">
<g>
	<polygon points="27.1,9.7 27.9,9.7 27.9,7.8 29.5,4.4 28.6,4.4 27.5,6.9 26.3,4.4 25.4,4.4 27.1,7.8 	"/>
	<path d="M32.4,4.3c-1.6,0-2.8,1.3-2.8,2.8s1.2,2.8,2.8,2.8s2.8-1.3,2.8-2.7C35.1,5.6,33.9,4.3,32.4,4.3z M32.4,9.1
		c-1.4,0-2-1.2-2-2s0.6-2,2-2c1.3,0,2,1.1,2,2.1C34.4,7.9,33.7,9.1,32.4,9.1z"/>
	<path d="M37.7,9.8c0.5,0,0.9-0.2,1.2-0.5s0.5-0.8,0.5-1.4V4.3h-0.8v3.6c0,1-0.7,1.1-1,1.1s-1-0.1-1-1.1V4.3h-0.8v3.6
		c0,0.6,0.2,1,0.5,1.4C36.8,9.7,37.2,9.8,37.7,9.8z"/>
	<path d="M43.1,6.9c0.2-0.2,0.5-0.4,0.5-1c0-0.4-0.2-1.5-1.7-1.5h-1.4v5.3h1.6c1.5,0,1.8-1,1.8-1.5C43.9,7.4,43.4,7,43.1,6.9z
		 M41.3,5.1h0.6c0.2,0,0.9,0,0.9,0.8c0,0.3-0.1,0.7-0.9,0.7h-0.6V5.1z M42.2,9h-0.8V7.3h0.7c0.3,0,0.6,0,0.9,0.3
		c0.1,0.1,0.2,0.3,0.2,0.5C43.1,8.5,43,9,42.2,9z"/>
	<path d="M47.2,9.8c1.6,0,2.8-1.3,2.8-2.7c0-0.9-0.4-1.7-1.1-2.3c-0.1,0.2-0.3,0.4-0.4,0.6c0.5,0.4,0.8,1.1,0.8,1.7c0,0.8-0.6,2-2,2
		s-2-1.2-2-2c0-0.1,0-0.1,0-0.2c-0.2-0.3-0.4-0.7-0.5-1.1c-0.2,0.4-0.3,0.8-0.3,1.3C44.5,8.5,45.6,9.8,47.2,9.8z"/>
	<path d="M47.4,5.5c-0.1,0.1-0.1,0.1-0.2,0.2c-0.1,0.1-0.1,0.2-0.1,0.3c-0.1,0.4,0,1,0,1c0.1-0.7,0.3-0.9,0.8-1.3
		c0.3-0.3,1-0.7,0.9-1.3c-0.1,0.2-0.2,0.3-0.3,0.4C48.3,5,48,5.2,47.8,5.3C47.6,5.3,47.5,5.4,47.4,5.5z"/>
	<path d="M48.7,3.4c-0.1,0.2-0.3,0.5-0.5,0.7c-0.3,0.3-0.5,0.4-0.9,0.6c-0.1,0.1-0.2,0.1-0.3,0.2c-0.4,0.3-0.7,0.7-0.5,1.4
		c0,0.1,0,0.2,0.1,0.3c0-0.2,0-0.3,0-0.5C46.7,5.6,47,5.3,47.4,5C48,4.7,48.9,4.3,48.7,3.4z"/>
	<path d="M45.7,7c0.4,0.3,0.8,0.5,0.7,1.1c0.1-0.3,0.3-0.7,0.2-1.1c-0.1-0.2-0.3-0.4-0.5-0.6s-0.3-0.3-0.4-0.6
		c-0.2-0.5,0-0.9,0.2-1.2c0.2-0.2,0.4-0.5,0.6-0.6c0.8-0.7,3.4-2.2,1.7-4c0.2,1,0.3,1.6-0.3,2.2c-0.5,0.6-1.2,1-1.8,1.5
		c-0.6,0.4-1.1,1-1,2C45.1,6.2,45.3,6.7,45.7,7z"/>
	<path d="M46.8,4.1C46.5,4.3,46.2,4.6,46,5c-0.2,0.6,0.3,1.4,0.3,1.3c-0.1-1.3,0.5-1.5,1.1-2c0.5-0.4,1.4-1,1.3-2
		C48.1,3.6,47.1,3.9,46.8,4.1z"/>
	<path d="M3.4,4.5C3.1,4.4,2.7,4.3,2.3,4.1C2.2,4.8,1.9,5.8,1.6,6.6C1.2,7.5,0.7,8.5,0,9.2c0.2,0.2,0.6,0.6,0.7,0.9
		c0.4-0.7,0.8-1.2,1.1-1.8v4.1c0,0.9-0.1,2-0.1,2.7h1.1V6.2c0.3-0.8,0.5-1.3,0.7-1.4C3.7,4.6,3.7,4.5,3.4,4.5z"/>
	<path d="M9.1,6.8l0.7-0.9C9.3,5.5,8.7,5,8.2,4.6L7.5,5.3C8,5.7,8.7,6.3,9.1,6.8z"/>
	<path d="M8.9,13.7C8.1,13.7,8,13.6,8,13V8.2c1.1,0,1.9,0,2.5,0.1V7.1C9.7,7.2,8.9,7.2,7.6,7.2h-1c0.1-1,0.1-1.7,0.2-2.3
		c0-0.3,0.1-0.5,0.2-0.5c0.2-0.1,0.1-0.3,0-0.2c-0.3,0-0.9,0-1.4-0.1c0.1,0.8,0.2,2,0.1,3.2c-1.1,0-1.9-0.1-2.4-0.1v1.2
		c0.6-0.1,1.5-0.1,2.4-0.1c-0.3,3.3-1.3,4.8-2.8,6c0.4,0.1,0.8,0.4,1,0.7c1.7-1.6,2.4-3.4,2.7-6.6h0.5v5.2c0,1.2,0.1,1.3,1.7,1.3
		s1.8-0.1,2.3-1.9c-0.3,0-0.8-0.3-1.1-0.6C9.8,13.6,9.7,13.7,8.9,13.7z"/>
	<path d="M22.5,5c-0.3-0.3-0.4-0.6-0.6-0.9l-1,0.4c0.3,0.3,0.5,0.6,0.6,0.9L22.5,5z"/>
	<path d="M15.2,8.4c0.5,0,0.9,0,1.1,0.1v-1c-0.2,0-0.7,0.1-1.1,0.1V5c0-0.1,0-0.3,0.1-0.4c0.2-0.2,0.1-0.3-0.1-0.3
		c-0.4,0-0.7,0-1.1,0c0.1,0.6,0.1,1,0.1,2.6v0.8c-0.5,0-1,0-1.3-0.1v1c0.3,0,0.8-0.1,1.3-0.1v4.2c0,0.6,0,1.4-0.1,2.3h1.1
		c-0.1-0.9-0.1-1.7-0.1-2.3V8.4H15.2z"/>
	<path d="M19.1,7c-1.3,0-2.1,0-2.6-0.1c0,0.3,0.1,0.8,0.1,1.2v1.6c0,0.5,0,1.2-0.1,1.6h0.9v-0.9H19c0,0.3,0,0.6-0.1,0.9h1
		c0-0.3-0.1-0.6-0.1-0.9h1.8v0.7h1c0-0.5-0.1-1.1-0.1-1.6V8.1c0-0.4,0-0.9,0.1-1.2C22.1,7,21.3,7,19.8,7V6.2c1.6,0,2.7,0,3.5,0.1
		V5.4c-0.8,0.1-1.9,0.1-3.5,0.1V4.9c0-0.1,0.1-0.4,0.2-0.4c0.2-0.1,0.2-0.1-0.1-0.1c-0.3,0-0.7,0-1-0.1c0,0.2,0.1,0.6,0.1,1.3
		c-1.4,0-2.3,0-2.8-0.1v0.9c0.6,0,1.5-0.1,2.8-0.1V7H19.1z M19.1,9.8h-1.6V9h1.6V9.8z M19.1,8.4h-1.6V7.6h1.6V8.4z M19.9,7.6h1.8
		v0.8h-1.8V7.6z M19.9,9h1.8v0.8h-1.8V9z"/>
	<path d="M22.2,11.4c0.1-0.2,0.1-0.2-0.2-0.2c-0.3,0-0.6,0-0.9-0.1c0,0.2,0.1,0.4,0.1,0.7H18c-1,0-1.6,0-2.1-0.1v0.9
		c0.5,0,1-0.1,2.1-0.1h3.3v0.9c0,0.6-0.1,0.7-1.3,0.6c0.2,0.6,0.3,0.8,0.4,1.1c1.6-0.2,1.8-0.4,1.8-1.2v-1.4c0.6,0,1.2,0,1.6,0.1
		v-0.9c-0.6,0.1-1.1,0.1-1.6,0.1C22.1,11.6,22.2,11.5,22.2,11.4z"/>
	<path d="M17.3,13c0.3,0.4,0.5,0.9,0.7,1.3l1-0.3c-0.2-0.4-0.5-0.9-0.8-1.3L17.3,13z"/>
	<path d="M29.6,13.7c0.5,0,1,0,1.3,0v-0.4c-0.3,0-0.7,0-1.5,0c0-0.1,0-0.3,0.1-0.5c0.4,0,0.9,0,1.1,0v-0.4c-0.3,0-0.5,0-1.3,0
		c-0.7,0-0.9,0-1.2,0v0.4c0.2,0,0.5,0,0.9,0c0,0.1,0,0.3,0,0.5c-0.5,0-0.9,0-1.1,0v0.4c0.3,0,0.6,0,1.1,0c-0.1,0.6-0.6,1-1.4,1.2
		c0.2,0.1,0.3,0.3,0.3,0.4c0.9-0.4,1.3-0.8,1.5-1.5c0.2,0.7,0.6,1.2,1.4,1.5c0-0.1,0.1-0.4,0.2-0.6C30.3,14.6,30,14.3,29.6,13.7z"/>
	<path d="M28.1,14.2c-0.2-0.1-0.3-0.2-0.6-0.4c0.2-0.4,0.2-0.9,0.4-2.2c-0.1,0-0.3,0-0.8,0c0.1-0.8,0.2-0.9,0.2-1
		c0.1-0.1,0.1-0.1,0-0.1c-0.2,0-0.4,0-0.5-0.1c0,0.3,0,0.8,0,1.2c-0.3,0-0.4,0-0.5,0v0.5c0.1,0,0.3,0,0.5,0c-0.1,0.5-0.2,1-0.3,1.5
		c0.3,0.2,0.5,0.3,0.7,0.4c-0.2,0.4-0.5,0.7-0.9,1c0.2,0.1,0.4,0.2,0.5,0.3c0.3-0.3,0.5-0.6,0.8-1.1c0.2,0.1,0.3,0.3,0.4,0.4
		C27.9,14.4,28,14.3,28.1,14.2z M27.2,13.6c-0.1-0.1-0.2-0.2-0.4-0.2c0.1-0.5,0.1-1,0.2-1.3h0.5C27.4,12.7,27.3,13.2,27.2,13.6z"/>
	<path d="M29.4,10.7c-0.8,0-0.9,0-1.2,0c0,0.2,0,0.5,0,0.7c0,0.3,0,0.6,0,0.8c0.3,0,0.6,0,1.2,0c0.7,0,0.9,0,1.2,0
		c0-0.2,0-0.5,0-0.8s0-0.5,0-0.7C30.3,10.7,30.2,10.7,29.4,10.7z M30.1,11.7h-1.5V11h1.5V11.7z"/>
	<path d="M38.6,13.7c0.4,0.4,0.8,0.9,1.1,1.3l0.5-0.4c-0.4-0.4-0.9-0.8-1.2-1.2L38.6,13.7z"/>
	<path d="M37.1,13.6c-0.1,0-0.3-0.2-0.5-0.3c-0.3,0.5-0.7,1.1-1.2,1.4c0.2,0.1,0.3,0.2,0.5,0.3c0.4-0.4,0.7-0.8,0.9-1
		c0.1-0.2,0.2-0.3,0.3-0.3C37.2,13.7,37.2,13.6,37.1,13.6z"/>
	<path d="M39.9,12.4c-0.4,0-0.9,0.1-1.7,0.1v-0.7c0-0.1,0-0.1,0.1-0.2s0.1-0.1-0.1-0.1c-0.1,0-0.3,0-0.6-0.1
		c0.1,0.2,0.1,0.5,0.1,1.1h-1.3l0.1-1.2c2.1-0.1,3-0.2,3.1-0.2s0.1,0,0-0.1s-0.2-0.3-0.3-0.5c-0.6,0.2-2.3,0.4-3.3,0.3
		c0,0.3,0,0.7-0.1,1.4c0,0.2-0.1,0.3-0.2,0.3c0.1,0.1,0.1,0.3,0.2,0.5c0.2-0.1,0.5-0.2,1.8-0.2v1.7c0,0.3-0.1,0.3-0.7,0.3
		c0.2,0.2,0.3,0.3,0.3,0.6c0.9-0.1,0.9-0.2,0.9-0.7v-1.9c0.9,0,1.3,0,1.7,0.1V12.4z"/>
	<path d="M48.4,14.2c0.2-0.3,0.3-0.7,0.4-1.2c0.1-0.5,0.2-0.6,0.2-0.7c0.1,0,0.1-0.1,0-0.1s-0.3,0-0.5-0.1c0,0.6-0.1,1.2-0.3,1.6
		c-0.2-0.5-0.3-1.2-0.3-2c0.6,0,0.9,0,1.2,0v-0.5c-0.3,0-0.6,0-1.2,0.1c0-0.4,0-0.8,0-0.8c0.1-0.1,0.1-0.1,0-0.1s-0.3,0-0.5,0
		c0,0.3,0,0.6,0.1,1c-0.7,0-1.2,0-1.5-0.1c0.1,0.8,0.1,1.6,0,2c0,0.9-0.2,1.3-0.8,1.8c0.3,0.1,0.3,0.1,0.4,0.3
		c0.6-0.7,0.7-1.3,0.7-2.6h0.5v0.7c0,0.6,0,0.6-0.5,0.6c0.1,0.2,0.2,0.3,0.2,0.5c0.6-0.2,0.7-0.2,0.7-1v-0.7c0-0.1,0-0.3,0-0.5
		c-0.2,0-0.6,0-0.9,0v-0.7h1.1c0.1,1.3,0.2,1.9,0.4,2.4c-0.3,0.4-0.7,0.7-1.1,0.9c0.2,0.1,0.4,0.2,0.4,0.3c0.4-0.3,0.7-0.6,0.9-0.8
		c0.3,0.4,0.6,0.7,0.8,0.7c0.1,0,0.3-0.1,0.5-0.8c-0.1-0.1-0.3-0.2-0.4-0.3C49,14.8,48.8,14.9,48.4,14.2z"/>
	<path d="M48.5,11.2L49,11c-0.1-0.2-0.2-0.3-0.3-0.5l-0.5,0.2C48.4,10.9,48.5,11.1,48.5,11.2z"/>
	<path d="M45.8,13.7c-0.2,0.1-0.3,0.1-0.5,0.2v-1.5c0.2,0,0.4,0,0.5,0v-0.5c-0.1,0-0.2,0-0.5,0v-0.8c0-0.2,0-0.4,0.1-0.5
		s0.1-0.1,0-0.1c-0.2,0-0.3,0-0.5,0c0,0.3,0,0.4,0,1.4c-0.3,0-0.4,0-0.5,0v0.5c0.1,0,0.3,0,0.5,0v1.7c-0.3,0.1-0.5,0.1-0.6,0.1
		c0.1,0.2,0.1,0.4,0.2,0.6c0.1-0.1,0.4-0.2,1.3-0.5C45.8,14.1,45.8,13.9,45.8,13.7z"/>
</g>
</svg>
