<svg xmlns="http://www.w3.org/2000/svg" width="100" height="100" viewBox="0 0 100 100">
  <defs>
    <style>
      .cls-1 {
        fill: #ffe03e;
        fill-rule: evenodd;
      }
    </style>
  </defs>
  <path id="快速存款_icon" data-name="快速存款 icon" class="cls-1" d="M44.367,58.516A12.861,12.861,0,0,1,57.436,45.9H92.125V29.84l-76.409-.149a5.027,5.027,0,0,1-.524-10.039,4.964,4.964,0,0,1,.667-0.05h7.514l7.483-6.26H16.775C9.35,13.341,3.33,19.111,3.33,26.23V82.2c0,7.117,6.02,12.887,13.445,12.887H78.68c7.426,0,13.445-5.77,13.445-12.887V71.13H57.436A12.863,12.863,0,0,1,44.367,58.516ZM73.037,26.23L50.353,2.6,23.556,26.23h49.48Zm18.475-6.758c0-3.384-2.864-6.131-8.236-6.131H68.3l5.574,6.131h17.64Zm2.722,29.373h-36.8a9.678,9.678,0,1,0,0,19.346h36.8A2.444,2.444,0,0,0,96.727,65.8V51.235A2.443,2.443,0,0,0,94.234,48.844ZM57.289,62.17A3.657,3.657,0,1,1,61.1,58.516,3.735,3.735,0,0,1,57.289,62.17Z"/>
</svg>
